<?xml version="1.0" encoding="UTF-8"?>
<svg xmlns="http://www.w3.org/2000/svg" xmlns:xlink="http://www.w3.org/1999/xlink"
     width="436.5" height="360.0" viewBox="-218.25 -180.0 436.5 360.0">
<defs>
</defs>
<path d="M-42.781073713807345,105.7454668564138 L-21.849057529615195,112.07765973228449 L-5.746914791000395,114.81452809792756 Z" fill="#FA77E6" stroke="none" />
<path d="M2.0969572080719226e-14,-113.87504052897565 L43.87111212879153,-107.05827535996747 L35.26492344539256,-110.09612252648022 Z" fill="#BCCEA1" stroke="none" />
<path d="M2.0969572080719226e-14,-113.87504052897565 L35.26492344539256,-110.09612252648022 L21.882282562301317,-112.24809197646421 Z" fill="#B744F8" stroke="none" />
<path d="M2.0969572080719226e-14,-113.87504052897565 L-11.259635247037687,-113.06594686116141 L-26.758816840874264,-111.64696238586647 Z" fill="#2B2CA5" stroke="none" />
<path d="M2.0969572080719226e-14,-113.87504052897565 L-26.758816840874264,-111.64696238586647 L-38.75199005054558,-109.16593011462113 Z" fill="#0E79B3" stroke="none" />
<path d="M2.0969572080719226e-14,-113.87504052897565 L-38.75199005054558,-109.16593011462113 L-45.3926510975781,-105.91114564847943 Z" fill="#8B8B49" stroke="none" />
<path d="M-82.23973795412654,-81.6499965845457 L-104.98088441065902,-45.94172560660513 L-108.40370350920016,-33.74824915224952 Z" fill="#C2BF32" stroke="none" />
<path d="M2.0969572080719226e-14,-113.87504052897565 L46.148586598954964,-103.5189719973984 L43.87111212879153,-107.05827535996747 Z" fill="#A3D140" stroke="none" />
<path d="M46.148586598954964,-103.5189719973984 L84.75502744479934,-76.51458304534134 L78.97117933630291,-84.06366808811302 Z" fill="#4559A8" stroke="none" />
<path d="M46.148586598954964,-103.5189719973984 L78.97117933630291,-84.06366808811302 L43.87111212879153,-107.05827535996747 Z" fill="#AAF71A" stroke="none" />
<path d="M-89.70433931955912,67.55268562939172 L-65.89316944658638,95.3406893239556 L-42.781073713807345,105.7454668564138 Z" fill="#9368C2" stroke="none" />
<path d="M-115.04494533590562,10.543181409234855 L-103.59909323432369,51.240952512300204 L-89.70433931955912,67.55268562939172 Z" fill="#01382B" stroke="none" />
<path d="M22.40761145044765,109.9570632028885 L11.37797771153442,114.25430709740633 L26.486451825216115,110.51056211677954 Z" fill="#95B480" stroke="none" />
<path d="M22.40761145044765,109.9570632028885 L26.486451825216115,110.51056211677954 L51.646811820710816,102.7432368427784 Z" fill="#F8A559" stroke="none" />
<path d="M2.0969572080719226e-14,-113.87504052897565 L-45.3926510975781,-105.91114564847943 L-45.33175942346376,-102.3139102067091 Z" fill="#590C43" stroke="none" />
<path d="M-82.23973795412654,-81.6499965845457 L-108.40370350920016,-33.74824915224952 L-83.83358040066813,-73.87393023204558 Z" fill="#E1ACDA" stroke="none" />
<path d="M-45.3926510975781,-105.91114564847943 L-82.23973795412654,-81.6499965845457 L-83.83358040066813,-73.87393023204558 Z" fill="#1989B6" stroke="none" />
<path d="M-45.3926510975781,-105.91114564847943 L-83.83358040066813,-73.87393023204558 L-45.33175942346376,-102.3139102067091 Z" fill="#C63AE6" stroke="none" />
<path d="M-42.781073713807345,105.7454668564138 L-5.746914791000395,114.81452809792756 L-11.334803871931435,111.04895179737757 Z" fill="#8E06E8" stroke="none" />
<path d="M-11.334803871931435,111.04895179737757 L-5.746914791000395,114.81452809792756 L11.37797771153442,114.25430709740633 Z" fill="#9EBC78" stroke="none" />
<path d="M-11.334803871931435,111.04895179737757 L11.37797771153442,114.25430709740633 L22.40761145044765,109.9570632028885 Z" fill="#C5E91F" stroke="none" />
<path d="M107.3736102456079,21.202575239200602 L96.29834447553687,62.29669624485574 L104.3679299031473,45.67348450774676 Z" fill="#2412BA" stroke="none" />
<path d="M107.3736102456079,21.202575239200602 L104.3679299031473,45.67348450774676 L115.66220559802044,5.208015366074713 Z" fill="#4A12C3" stroke="none" />
<path d="M2.0969572080719226e-14,-113.87504052897565 L41.283760456660794,-99.99379984597763 L46.148586598954964,-103.5189719973984 Z" fill="#D678A4" stroke="none" />
<path d="M41.283760456660794,-99.99379984597763 L84.75502744479934,-76.51458304534134 L46.148586598954964,-103.5189719973984 Z" fill="#72812B" stroke="none" />
<path d="M2.0969572080719226e-14,-113.87504052897565 L-45.33175942346376,-102.3139102067091 L-38.09011141782174,-98.92344610941409 Z" fill="#224D04" stroke="none" />
<path d="M70.85949256446993,76.890709111692 L51.646811820710816,102.7432368427784 L71.04944652968784,91.12297539156233 Z" fill="#257815" stroke="none" />
<path d="M70.85949256446993,76.890709111692 L71.04944652968784,91.12297539156233 L96.29834447553687,62.29669624485574 Z" fill="#AD11A6" stroke="none" />
<path d="M100.9364215683793,-25.434224670773673 L107.3736102456079,21.202575239200602 L115.66220559802044,5.208015366074713 Z" fill="#031D2F" stroke="none" />
<path d="M100.9364215683793,-25.434224670773673 L115.66220559802044,5.208015366074713 L109.1145336082402,-37.924316690220756 Z" fill="#B640D7" stroke="none" />
<path d="M-115.04494533590562,10.543181409234855 L-89.70433931955912,67.55268562939172 L-100.2154846300175,26.300680704124293 Z" fill="#555DC4" stroke="none" />
<path d="M-108.40370350920016,-33.74824915224952 L-115.04494533590562,10.543181409234855 L-100.2154846300175,26.300680704124293 Z" fill="#FB5750" stroke="none" />
<path d="M77.38309123338041,-68.68508887656611 L100.9364215683793,-25.434224670773673 L109.1145336082402,-37.924316690220756 Z" fill="#557BB6" stroke="none" />
<path d="M77.38309123338041,-68.68508887656611 L109.1145336082402,-37.924316690220756 L84.75502744479934,-76.51458304534134 Z" fill="#D57E62" stroke="none" />
<path d="M41.283760456660794,-99.99379984597763 L77.38309123338041,-68.68508887656611 L84.75502744479934,-76.51458304534134 Z" fill="#3549DF" stroke="none" />
<path d="M2.0969572080719226e-14,-113.87504052897565 L29.586938945309402,-97.0713250030764 L41.283760456660794,-99.99379984597763 Z" fill="#173B8A" stroke="none" />
<path d="M29.586938945309402,-97.0713250030764 L77.38309123338041,-68.68508887656611 L41.283760456660794,-99.99379984597763 Z" fill="#D9CE7E" stroke="none" />
<path d="M-58.88235237754634,80.71964537771468 L-42.781073713807345,105.7454668564138 L-11.334803871931435,111.04895179737757 Z" fill="#3F082B" stroke="none" />
<path d="M-89.70433931955912,67.55268562939172 L-42.781073713807345,105.7454668564138 L-58.88235237754634,80.71964537771468 Z" fill="#7ECB6C" stroke="none" />
<path d="M-100.2154846300175,26.300680704124293 L-89.70433931955912,67.55268562939172 L-58.88235237754634,80.71964537771468 Z" fill="#E52A83" stroke="none" />
<path d="M2.0969572080719226e-14,-113.87504052897565 L-38.09011141782174,-98.92344610941409 L-24.41913503786684,-96.32960688098055 Z" fill="#410E54" stroke="none" />
<path d="M-45.33175942346376,-102.3139102067091 L-83.83358040066813,-73.87393023204558 L-71.84645392673265,-66.24353262661695 Z" fill="#774542" stroke="none" />
<path d="M-45.33175942346376,-102.3139102067091 L-71.84645392673265,-66.24353262661695 L-38.09011141782174,-98.92344610941409 Z" fill="#E77410" stroke="none" />
<path d="M-108.40370350920016,-33.74824915224952 L-100.2154846300175,26.300680704124293 L-94.1012119392926,-21.47170515318052 Z" fill="#4E69C2" stroke="none" />
<path d="M-83.83358040066813,-73.87393023204558 L-108.40370350920016,-33.74824915224952 L-94.1012119392926,-21.47170515318052 Z" fill="#5CECD8" stroke="none" />
<path d="M-83.83358040066813,-73.87393023204558 L-94.1012119392926,-21.47170515318052 L-71.84645392673265,-66.24353262661695 Z" fill="#43361A" stroke="none" />
<path d="M2.0969572080719226e-14,-113.87504052897565 L12.725364621378564,-95.29812923633418 L29.586938945309402,-97.0713250030764 Z" fill="#4C2BC9" stroke="none" />
<path d="M2.0969572080719226e-14,-113.87504052897565 L-24.41913503786684,-96.32960688098055 L-6.428640144433088,-95.03241310609293 Z" fill="#4D59F5" stroke="none" />
<path d="M2.0969572080719226e-14,-113.87504052897565 L-6.428640144433088,-95.03241310609293 L12.725364621378564,-95.29812923633418 Z" fill="#56EF76" stroke="none" />
<path d="M30.97924790403353,86.13219261623038 L22.40761145044765,109.9570632028885 L51.646811820710816,102.7432368427784 Z" fill="#EE6C85" stroke="none" />
<path d="M30.97924790403353,86.13219261623038 L51.646811820710816,102.7432368427784 L70.85949256446993,76.890709111692 Z" fill="#22B3AD" stroke="none" />
<path d="M-58.88235237754634,80.71964537771468 L-11.334803871931435,111.04895179737757 L-15.688960524758981,87.54336470375324 Z" fill="#8EDFD5" stroke="none" />
<path d="M-15.688960524758981,87.54336470375324 L-11.334803871931435,111.04895179737757 L22.40761145044765,109.9570632028885 Z" fill="#498D17" stroke="none" />
<path d="M-15.688960524758981,87.54336470375324 L22.40761145044765,109.9570632028885 L30.97924790403353,86.13219261623038 Z" fill="#7FF8AF" stroke="none" />
<path d="M79.43658049989264,35.407213708765376 L70.85949256446993,76.890709111692 L96.29834447553687,62.29669624485574 Z" fill="#B68BD8" stroke="none" />
<path d="M79.43658049989264,35.407213708765376 L96.29834447553687,62.29669624485574 L107.3736102456079,21.202575239200602 Z" fill="#BD61B1" stroke="none" />
<path d="M56.42238356455315,-61.94526597827786 L100.9364215683793,-25.434224670773673 L77.38309123338041,-68.68508887656611 Z" fill="#956A1D" stroke="none" />
<path d="M12.725364621378564,-95.29812923633418 L56.42238356455315,-61.94526597827786 L29.586938945309402,-97.0713250030764 Z" fill="#E53BBA" stroke="none" />
<path d="M29.586938945309402,-97.0713250030764 L56.42238356455315,-61.94526597827786 L77.38309123338041,-68.68508887656611 Z" fill="#DFA0E0" stroke="none" />
<path d="M-66.10353342562703,39.15948633452608 L-58.88235237754634,80.71964537771468 L-15.688960524758981,87.54336470375324 Z" fill="#2E7BC1" stroke="none" />
<path d="M-100.2154846300175,26.300680704124293 L-58.88235237754634,80.71964537771468 L-66.10353342562703,39.15948633452608 Z" fill="#B5E779" stroke="none" />
<path d="M-94.1012119392926,-21.47170515318052 L-100.2154846300175,26.300680704124293 L-66.10353342562703,39.15948633452608 Z" fill="#62189A" stroke="none" />
<path d="M-38.09011141782174,-98.92344610941409 L-71.84645392673265,-66.24353262661695 L-46.77372307055153,-60.19726596387877 Z" fill="#072CCF" stroke="none" />
<path d="M-38.09011141782174,-98.92344610941409 L-46.77372307055153,-60.19726596387877 L-24.41913503786684,-96.32960688098055 Z" fill="#B94C10" stroke="none" />
<path d="M74.44012614595852,-14.415813941743574 L79.43658049989264,35.407213708765376 L107.3736102456079,21.202575239200602 Z" fill="#DF416B" stroke="none" />
<path d="M74.44012614595852,-14.415813941743574 L107.3736102456079,21.202575239200602 L100.9364215683793,-25.434224670773673 Z" fill="#3BCCD6" stroke="none" />
<path d="M56.42238356455315,-61.94526597827786 L74.44012614595852,-14.415813941743574 L100.9364215683793,-25.434224670773673 Z" fill="#BC1146" stroke="none" />
<path d="M-94.1012119392926,-21.47170515318052 L-66.10353342562703,39.15948633452608 L-61.89444768400113,-11.516736431141936 Z" fill="#7FC6D3" stroke="none" />
<path d="M-71.84645392673265,-66.24353262661695 L-94.1012119392926,-21.47170515318052 L-61.89444768400113,-11.516736431141936 Z" fill="#38A8FF" stroke="none" />
<path d="M-71.84645392673265,-66.24353262661695 L-61.89444768400113,-11.516736431141936 L-46.77372307055153,-60.19726596387877 Z" fill="#643BCF" stroke="none" />
<path d="M24.525989287452283,-57.74048031028251 L74.44012614595852,-14.415813941743574 L56.42238356455315,-61.94526597827786 Z" fill="#8350F9" stroke="none" />
<path d="M-6.428640144433088,-95.03241310609293 L24.525989287452283,-57.74048031028251 L12.725364621378564,-95.29812923633418 Z" fill="#9D8E45" stroke="none" />
<path d="M12.725364621378564,-95.29812923633418 L24.525989287452283,-57.74048031028251 L56.42238356455315,-61.94526597827786 Z" fill="#033ABF" stroke="none" />
<path d="M-24.41913503786684,-96.32960688098055 L-46.77372307055153,-60.19726596387877 L-12.409940331532043,-57.102651282322846 Z" fill="#D98429" stroke="none" />
<path d="M-24.41913503786684,-96.32960688098055 L-12.409940331532043,-57.102651282322846 L-6.428640144433088,-95.03241310609293 Z" fill="#101454" stroke="none" />
<path d="M-6.428640144433088,-95.03241310609293 L-12.409940331532043,-57.102651282322846 L24.525989287452283,-57.74048031028251 Z" fill="#314796" stroke="none" />
<path d="M34.84850114130585,44.48190064277928 L30.97924790403353,86.13219261623038 L70.85949256446993,76.890709111692 Z" fill="#7F1DAA" stroke="none" />
<path d="M34.84850114130585,44.48190064277928 L70.85949256446993,76.890709111692 L79.43658049989264,35.407213708765376 Z" fill="#A25EF3" stroke="none" />
<path d="M-66.10353342562703,39.15948633452608 L-15.688960524758981,87.54336470375324 L-17.657755091527672,45.87309802614832 Z" fill="#3D8736" stroke="none" />
<path d="M-17.657755091527672,45.87309802614832 L-15.688960524758981,87.54336470375324 L30.97924790403353,86.13219261623038 Z" fill="#20F8B9" stroke="none" />
<path d="M-17.657755091527672,45.87309802614832 L30.97924790403353,86.13219261623038 L34.84850114130585,44.48190064277928 Z" fill="#65D1C0" stroke="none" />
<path d="M-61.89444768400113,-11.516736431141936 L-66.10353342562703,39.15948633452608 L-17.657755091527672,45.87309802614832 Z" fill="#C82677" stroke="none" />
<path d="M32.59129656616312,-7.412757760800998 L34.84850114130585,44.48190064277928 L79.43658049989264,35.407213708765376 Z" fill="#CD0961" stroke="none" />
<path d="M32.59129656616312,-7.412757760800998 L79.43658049989264,35.407213708765376 L74.44012614595852,-14.415813941743574 Z" fill="#2245E6" stroke="none" />
<path d="M-12.409940331532043,-57.102651282322846 L32.59129656616312,-7.412757760800998 L24.525989287452283,-57.74048031028251 Z" fill="#509DA8" stroke="none" />
<path d="M24.525989287452283,-57.74048031028251 L32.59129656616312,-7.412757760800998 L74.44012614595852,-14.415813941743574 Z" fill="#6D49ED" stroke="none" />
<path d="M-61.89444768400113,-11.516736431141936 L-17.657755091527672,45.87309802614832 L-16.508968965017278,-6.341626698508167 Z" fill="#775218" stroke="none" />
<path d="M-16.508968965017278,-6.341626698508167 L-17.657755091527672,45.87309802614832 L34.84850114130585,44.48190064277928 Z" fill="#52B9FC" stroke="none" />
<path d="M-16.508968965017278,-6.341626698508167 L34.84850114130585,44.48190064277928 L32.59129656616312,-7.412757760800998 Z" fill="#79F8F6" stroke="none" />
<path d="M-46.77372307055153,-60.19726596387877 L-61.89444768400113,-11.516736431141936 L-16.508968965017278,-6.341626698508167 Z" fill="#5CDD97" stroke="none" />
<path d="M-46.77372307055153,-60.19726596387877 L-16.508968965017278,-6.341626698508167 L-12.409940331532043,-57.102651282322846 Z" fill="#460252" stroke="none" />
<path d="M-12.409940331532043,-57.102651282322846 L-16.508968965017278,-6.341626698508167 L32.59129656616312,-7.412757760800998 Z" fill="#8A0E87" stroke="none" />
<path d="M79.03611997867092,64.46785387030852 L73.52849842746653,129.73679841927006 L139.7961802203324,66.0092268267107 Z" fill="#E168A8" stroke="none" />
<path d="M135.27833756084934,135.02914449464868 L73.52849842746653,129.73679841927006 L102.00526603531034,134.87461292430092 Z" fill="#81B465" stroke="none" />
<path d="M135.27833756084934,135.02914449464868 L102.00526603531034,134.87461292430092 L160.6167111363691,140.040076648948 Z" fill="#8BD125" stroke="none" />
<path d="M139.7961802203324,66.0092268267107 L73.52849842746653,129.73679841927006 L135.27833756084934,135.02914449464868 Z" fill="#9B0775" stroke="none" />
<path d="M164.3087982410068,76.00658124859682 L135.27833756084934,135.02914449464868 L160.6167111363691,140.040076648948 Z" fill="#6886C2" stroke="none" />
<path d="M139.7961802203324,66.0092268267107 L135.27833756084934,135.02914449464868 L164.3087982410068,76.00658124859682 Z" fill="#D73505" stroke="none" />
<path d="M168.25000000000014,-130.00000000000006 L168.25000000000017,-159.99130892406188" stroke="#0000FF" stroke-width="3" stroke-linecap="round" fill="none" />
<path d="M168.25000000000017,-159.99130892406188 L169.75000000000017,-156.99130892406188 L166.75000000000017,-156.99130892406188 Z" stroke="#0000FF" stroke-width="3" stroke-linecap="round" fill="none" />
<path d="M168.25000000000014,-130.00000000000006 L196.05558620634795,-124.50935819088491" stroke="#FF0000" stroke-width="3" stroke-linecap="round" fill="none" />
<path d="M196.05558620634795,-124.50935819088491 L192.82183142900996,-123.61894815048574 L193.40300530762582,-126.56211598851581 Z" stroke="#FF0000" stroke-width="3" stroke-linecap="round" fill="none" />
<path d="M168.25000000000014,-130.00000000000006 L151.93364203419844,-120.33425047528037" stroke="#00FF00" stroke-width="3" stroke-linecap="round" fill="none" />
<path d="M151.93364203419844,-120.33425047528037 L153.75022279483696,-123.1538310008334 L155.279254911024,-120.57273418210137 Z" stroke="#00FF00" stroke-width="3" stroke-linecap="round" fill="none" />
</svg>