<?xml version="1.0" encoding="UTF-8"?>
<svg xmlns="http://www.w3.org/2000/svg" xmlns:xlink="http://www.w3.org/1999/xlink"
     width="640.0" height="360.0" viewBox="-320.0 -180.0 640.0 360.0">
<defs>
</defs>
<path d="M-62.72597291371524,155.04489985820118 L-32.035273353845874,164.3292147277481 L-8.426175180390041,168.34203432456727 Z" fill="#C42A29" stroke="none" />
<path d="M3.0745764333700583e-14,-166.96454968738695 L64.32419647749502,-156.96975081415616 L51.70572967938428,-161.4238680800626 Z" fill="#D07700" stroke="none" />
<path d="M3.0745764333700583e-14,-166.96454968738695 L51.70572967938428,-161.4238680800626 L32.08398817840285,-164.57910392883642 Z" fill="#930AFF" stroke="none" />
<path d="M3.0745764333700583e-14,-166.96454968738695 L-16.50897264170474,-165.77824969334083 L-39.2340040736759,-163.69772262761634 Z" fill="#BD7145" stroke="none" />
<path d="M3.0745764333700583e-14,-166.96454968738695 L-39.2340040736759,-163.69772262761634 L-56.81849629404163,-160.06001208100233 Z" fill="#1995BA" stroke="none" />
<path d="M3.0745764333700583e-14,-166.96454968738695 L-56.81849629404163,-160.06001208100233 L-66.55508981088198,-155.28781950750704 Z" fill="#EDB871" stroke="none" />
<path d="M-120.58060089493927,-119.71591709990665 L-153.9238625952389,-67.36014751025722 L-158.94242897110675,-49.48196897466137 Z" fill="#EADE0B" stroke="none" />
<path d="M3.0745764333700583e-14,-166.96454968738695 L67.66344885070143,-151.7803942229896 L64.32419647749502,-156.96975081415616 Z" fill="#0F8200" stroke="none" />
<path d="M67.66344885070143,-151.7803942229896 L124.26853966705974,-112.18633023830115 L115.78821254349108,-123.25486271796642 Z" fill="#CA8286" stroke="none" />
<path d="M67.66344885070143,-151.7803942229896 L115.78821254349108,-123.25486271796642 L64.32419647749502,-156.96975081415616 Z" fill="#BCCF13" stroke="none" />
<path d="M-131.5252626907625,99.0463202813532 L-96.61312358720568,139.78932684382949 L-62.72597291371524,155.04489985820118 Z" fill="#161FCF" stroke="none" />
<path d="M-168.6798740320266,15.45850195168455 L-151.89786865971857,75.1299189183783 L-131.5252626907625,99.0463202813532 Z" fill="#469D24" stroke="none" />
<path d="M32.85422984716264,161.2199781210736 L16.682487366281855,167.5206335448798 L38.834660179011024,162.031522920364 Z" fill="#8DD4F0" stroke="none" />
<path d="M32.85422984716264,161.2199781210736 L38.834660179011024,162.031522920364 L75.72499327664357,150.64300476375294 Z" fill="#8A7055" stroke="none" />
<path d="M3.0745764333700583e-14,-166.96454968738695 L-66.55508981088198,-155.28781950750704 L-66.46580992214618,-150.0135224107533 Z" fill="#63E154" stroke="none" />
<path d="M-120.58060089493927,-119.71591709990665 L-158.94242897110675,-49.48196897466137 L-122.91750620029234,-108.31458269990647 Z" fill="#8B8864" stroke="none" />
<path d="M-66.55508981088198,-155.28781950750704 L-120.58060089493927,-119.71591709990665 L-122.91750620029234,-108.31458269990647 Z" fill="#52AB49" stroke="none" />
<path d="M-66.55508981088198,-155.28781950750704 L-122.91750620029234,-108.31458269990647 L-66.46580992214618,-150.0135224107533 Z" fill="#5314D7" stroke="none" />
<path d="M-62.72597291371524,155.04489985820118 L-8.426175180390041,168.34203432456727 L-16.619185516692138,162.82091443372653 Z" fill="#F7E548" stroke="none" />
<path d="M-16.619185516692138,162.82091443372653 L-8.426175180390041,168.34203432456727 L16.682487366281855,167.5206335448798 Z" fill="#E2F3F8" stroke="none" />
<path d="M-16.619185516692138,162.82091443372653 L16.682487366281855,167.5206335448798 L32.85422984716264,161.2199781210736 Z" fill="#36827C" stroke="none" />
<path d="M157.43209749642398,31.087395539721378 L141.19344894465885,91.33994409325925 L153.02514350060542,66.96685013736064 Z" fill="#EB98D9" stroke="none" />
<path d="M157.43209749642398,31.087395539721378 L153.02514350060542,66.96685013736064 L169.5849062605569,7.636036275573465 Z" fill="#708883" stroke="none" />
<path d="M3.0745764333700583e-14,-166.96454968738695 L60.53059952408455,-146.61175693339214 L67.66344885070143,-151.7803942229896 Z" fill="#81DDF5" stroke="none" />
<path d="M60.53059952408455,-146.61175693339214 L124.26853966705974,-112.18633023830115 L67.66344885070143,-151.7803942229896 Z" fill="#30E853" stroke="none" />
<path d="M3.0745764333700583e-14,-166.96454968738695 L-66.46580992214618,-150.0135224107533 L-55.84804423231595,-145.04239521197024 Z" fill="#A85354" stroke="none" />
<path d="M103.89478863977263,112.73780946502374 L75.72499327664357,150.64300476375294 L104.17330075372328,133.60527892462744 Z" fill="#77D5F0" stroke="none" />
<path d="M103.89478863977263,112.73780946502374 L104.17330075372328,133.60527892462744 L141.19344894465885,91.33994409325925 Z" fill="#86A01B" stroke="none" />
<path d="M147.99383689292728,-37.29187580594535 L157.43209749642398,31.087395539721378 L169.5849062605569,7.636036275573465 Z" fill="#BAD6F2" stroke="none" />
<path d="M147.99383689292728,-37.29187580594535 L169.5849062605569,7.636036275573465 L159.98465408768323,-55.60495459734543 Z" fill="#9FFE34" stroke="none" />
<path d="M-168.6798740320266,15.45850195168455 L-131.5252626907625,99.0463202813532 L-146.93679304286644,38.56228098657398 Z" fill="#908DB8" stroke="none" />
<path d="M-158.94242897110675,-49.48196897466137 L-168.6798740320266,15.45850195168455 L-146.93679304286644,38.56228098657398 Z" fill="#84113E" stroke="none" />
<path d="M113.45974430552913,-100.70665952119658 L147.99383689292728,-37.29187580594535 L159.98465408768323,-55.60495459734543 Z" fill="#59D550" stroke="none" />
<path d="M113.45974430552913,-100.70665952119658 L159.98465408768323,-55.60495459734543 L124.26853966705974,-112.18633023830115 Z" fill="#F21585" stroke="none" />
<path d="M60.53059952408455,-146.61175693339214 L113.45974430552913,-100.70665952119658 L124.26853966705974,-112.18633023830115 Z" fill="#20F38B" stroke="none" />
<path d="M3.0745764333700583e-14,-166.96454968738695 L43.380620675825924,-142.32679954632047 L60.53059952408455,-146.61175693339214 Z" fill="#F915A6" stroke="none" />
<path d="M43.380620675825924,-142.32679954632047 L113.45974430552913,-100.70665952119658 L60.53059952408455,-146.61175693339214 Z" fill="#EEEEC6" stroke="none" />
<path d="M-86.33380417326381,118.35182827431244 L-62.72597291371524,155.04489985820118 L-16.619185516692138,162.82091443372653 Z" fill="#B092F1" stroke="none" />
<path d="M-131.5252626907625,99.0463202813532 L-62.72597291371524,155.04489985820118 L-86.33380417326381,118.35182827431244 Z" fill="#990A5A" stroke="none" />
<path d="M-146.93679304286644,38.56228098657398 L-131.5252626907625,99.0463202813532 L-86.33380417326381,118.35182827431244 Z" fill="#9B7B8F" stroke="none" />
<path d="M3.0745764333700583e-14,-166.96454968738695 L-55.84804423231595,-145.04239521197024 L-35.80354278175207,-141.23928614851667 Z" fill="#7580C2" stroke="none" />
<path d="M-66.46580992214618,-150.0135224107533 L-122.91750620029234,-108.31458269990647 L-105.34187975511773,-97.12682905162623 Z" fill="#247392" stroke="none" />
<path d="M-66.46580992214618,-150.0135224107533 L-105.34187975511773,-97.12682905162623 L-55.84804423231595,-145.04239521197024 Z" fill="#B5F3EA" stroke="none" />
<path d="M-158.94242897110675,-49.48196897466137 L-146.93679304286644,38.56228098657398 L-137.97199459598457,-31.48199610088323 Z" fill="#1A085F" stroke="none" />
<path d="M-122.91750620029234,-108.31458269990647 L-158.94242897110675,-49.48196897466137 L-137.97199459598457,-31.48199610088323 Z" fill="#B55889" stroke="none" />
<path d="M-122.91750620029234,-108.31458269990647 L-137.97199459598457,-31.48199610088323 L-105.34187975511773,-97.12682905162623 Z" fill="#D735E0" stroke="none" />
<path d="M3.0745764333700583e-14,-166.96454968738695 L18.6580374746444,-139.72692488259764 L43.380620675825924,-142.32679954632047 Z" fill="#6B11AF" stroke="none" />
<path d="M3.0745764333700583e-14,-166.96454968738695 L-35.80354278175207,-141.23928614851667 L-9.425726672250118,-139.3373296400904 Z" fill="#7B7CF5" stroke="none" />
<path d="M3.0745764333700583e-14,-166.96454968738695 L-9.425726672250118,-139.3373296400904 L18.6580374746444,-139.72692488259764 Z" fill="#0BCB21" stroke="none" />
<path d="M45.42203587303885,126.28775091497694 L32.85422984716264,161.2199781210736 L75.72499327664357,150.64300476375294 Z" fill="#00004A" stroke="none" />
<path d="M45.42203587303885,126.28775091497694 L75.72499327664357,150.64300476375294 L103.89478863977263,112.73780946502374 Z" fill="#D10279" stroke="none" />
<path d="M-86.33380417326381,118.35182827431244 L-16.619185516692138,162.82091443372653 L-23.003286909154063,128.3568233915282 Z" fill="#EFEEDD" stroke="none" />
<path d="M-23.003286909154063,128.3568233915282 L-16.619185516692138,162.82091443372653 L32.85422984716264,161.2199781210736 Z" fill="#12FF0E" stroke="none" />
<path d="M-23.003286909154063,128.3568233915282 L32.85422984716264,161.2199781210736 L45.42203587303885,126.28775091497694 Z" fill="#CC8D43" stroke="none" />
<path d="M116.4705876745276,51.91435686966744 L103.89478863977263,112.73780946502374 L141.19344894465885,91.33994409325925 Z" fill="#F249B1" stroke="none" />
<path d="M116.4705876745276,51.91435686966744 L141.19344894465885,91.33994409325925 L157.43209749642398,31.087395539721378 Z" fill="#F8C5D7" stroke="none" />
<path d="M82.72697704768389,-90.82467405749789 L147.99383689292728,-37.29187580594535 L113.45974430552913,-100.70665952119658 Z" fill="#E05B4C" stroke="none" />
<path d="M18.6580374746444,-139.72692488259764 L82.72697704768389,-90.82467405749789 L43.380620675825924,-142.32679954632047 Z" fill="#64F5AD" stroke="none" />
<path d="M43.380620675825924,-142.32679954632047 L82.72697704768389,-90.82467405749789 L113.45974430552913,-100.70665952119658 Z" fill="#1F25F2" stroke="none" />
<path d="M-96.9215610364291,57.41597079976331 L-86.33380417326381,118.35182827431244 L-23.003286909154063,128.3568233915282 Z" fill="#23CCD3" stroke="none" />
<path d="M-146.93679304286644,38.56228098657398 L-86.33380417326381,118.35182827431244 L-96.9215610364291,57.41597079976331 Z" fill="#CC62C6" stroke="none" />
<path d="M-137.97199459598457,-31.48199610088323 L-146.93679304286644,38.56228098657398 L-96.9215610364291,57.41597079976331 Z" fill="#EB055E" stroke="none" />
<path d="M-55.84804423231595,-145.04239521197024 L-105.34187975511773,-97.12682905162623 L-68.58002924433673,-88.26174161943277 Z" fill="#08C28A" stroke="none" />
<path d="M-55.84804423231595,-145.04239521197024 L-68.58002924433673,-88.26174161943277 L-35.80354278175207,-141.23928614851667 Z" fill="#27D3E4" stroke="none" />
<path d="M109.14474394825532,-21.13658859728726 L116.4705876745276,51.91435686966744 L157.43209749642398,31.087395539721378 Z" fill="#5B729E" stroke="none" />
<path d="M109.14474394825532,-21.13658859728726 L157.43209749642398,31.087395539721378 L147.99383689292728,-37.29187580594535 Z" fill="#E500BC" stroke="none" />
<path d="M82.72697704768389,-90.82467405749789 L109.14474394825532,-21.13658859728726 L147.99383689292728,-37.29187580594535 Z" fill="#4F6461" stroke="none" />
<path d="M-137.97199459598457,-31.48199610088323 L-96.9215610364291,57.41597079976331 L-90.75016384366718,-16.885936577161132 Z" fill="#1DA104" stroke="none" />
<path d="M-105.34187975511773,-97.12682905162623 L-137.97199459598457,-31.48199610088323 L-90.75016384366718,-16.885936577161132 Z" fill="#C99B39" stroke="none" />
<path d="M-105.34187975511773,-97.12682905162623 L-90.75016384366718,-16.885936577161132 L-68.58002924433673,-88.26174161943277 Z" fill="#441924" stroke="none" />
<path d="M35.96021338824619,-84.65958166914272 L109.14474394825532,-21.13658859728726 L82.72697704768389,-90.82467405749789 Z" fill="#B47004" stroke="none" />
<path d="M-9.425726672250118,-139.3373296400904 L35.96021338824619,-84.65958166914272 L18.6580374746444,-139.72692488259764 Z" fill="#BBCC57" stroke="none" />
<path d="M18.6580374746444,-139.72692488259764 L35.96021338824619,-84.65958166914272 L82.72697704768389,-90.82467405749789 Z" fill="#D5EF5F" stroke="none" />
<path d="M-35.80354278175207,-141.23928614851667 L-68.58002924433673,-88.26174161943277 L-18.19555970717184,-83.7243913417792 Z" fill="#335B18" stroke="none" />
<path d="M-35.80354278175207,-141.23928614851667 L-18.19555970717184,-83.7243913417792 L-9.425726672250118,-139.3373296400904 Z" fill="#60F873" stroke="none" />
<path d="M-9.425726672250118,-139.3373296400904 L-18.19555970717184,-83.7243913417792 L35.96021338824619,-84.65958166914272 Z" fill="#107C78" stroke="none" />
<path d="M51.09516776732129,65.21973977406353 L45.42203587303885,126.28775091497694 L103.89478863977263,112.73780946502374 Z" fill="#F752CB" stroke="none" />
<path d="M51.09516776732129,65.21973977406353 L103.89478863977263,112.73780946502374 L116.4705876745276,51.91435686966744 Z" fill="#E42C36" stroke="none" />
<path d="M-96.9215610364291,57.41597079976331 L-23.003286909154063,128.3568233915282 L-25.889950191472415,67.25952517006856 Z" fill="#4522FE" stroke="none" />
<path d="M-25.889950191472415,67.25952517006856 L-23.003286909154063,128.3568233915282 L45.42203587303885,126.28775091497694 Z" fill="#10390A" stroke="none" />
<path d="M-25.889950191472415,67.25952517006856 L45.42203587303885,126.28775091497694 L51.09516776732129,65.21973977406353 Z" fill="#9416C1" stroke="none" />
<path d="M-90.75016384366718,-16.885936577161132 L-96.9215610364291,57.41597079976331 L-25.889950191472415,67.25952517006856 Z" fill="#A1DF8F" stroke="none" />
<path d="M47.785635286012365,-10.868648263259189 L51.09516776732129,65.21973977406353 L116.4705876745276,51.91435686966744 Z" fill="#623F03" stroke="none" />
<path d="M47.785635286012365,-10.868648263259189 L116.4705876745276,51.91435686966744 L109.14474394825532,-21.13658859728726 Z" fill="#647666" stroke="none" />
<path d="M-18.19555970717184,-83.7243913417792 L47.785635286012365,-10.868648263259189 L35.96021338824619,-84.65958166914272 Z" fill="#03916F" stroke="none" />
<path d="M35.96021338824619,-84.65958166914272 L47.785635286012365,-10.868648263259189 L109.14474394825532,-21.13658859728726 Z" fill="#A0CAC9" stroke="none" />
<path d="M-90.75016384366718,-16.885936577161132 L-25.889950191472415,67.25952517006856 L-24.205590235076876,-9.298146820263975 Z" fill="#AA3504" stroke="none" />
<path d="M-24.205590235076876,-9.298146820263975 L-25.889950191472415,67.25952517006856 L51.09516776732129,65.21973977406353 Z" fill="#A78B46" stroke="none" />
<path d="M-24.205590235076876,-9.298146820263975 L51.09516776732129,65.21973977406353 L47.785635286012365,-10.868648263259189 Z" fill="#A07482" stroke="none" />
<path d="M-68.58002924433673,-88.26174161943277 L-90.75016384366718,-16.885936577161132 L-24.205590235076876,-9.298146820263975 Z" fill="#4F217E" stroke="none" />
<path d="M-68.58002924433673,-88.26174161943277 L-24.205590235076876,-9.298146820263975 L-18.19555970717184,-83.7243913417792 Z" fill="#BAC963" stroke="none" />
<path d="M-18.19555970717184,-83.7243913417792 L-24.205590235076876,-9.298146820263975 L47.785635286012365,-10.868648263259189 Z" fill="#0D5471" stroke="none" />
<path d="M180.86943392038398,80.90547065644832 L175.12399198249386,174.6464656948249 L275.56444338238714,84.6849381385666 Z" fill="#3A338F" stroke="none" />
<path d="M271.32291197577064,182.4489059841943 L175.12399198249386,174.6464656948249 L198.3659002861374,179.65862982780828 Z" fill="#6FE96E" stroke="none" />
<path d="M271.32291197577064,182.4489059841943 L198.3659002861374,179.65862982780828 L287.81649389515997,187.03511937860313 Z" fill="#63CFF5" stroke="none" />
<path d="M275.56444338238714,84.6849381385666 L175.12399198249386,174.6464656948249 L271.32291197577064,182.4489059841943 Z" fill="#DFF037" stroke="none" />
<path d="M291.4510469392435,96.83984332604511 L271.32291197577064,182.4489059841943 L287.81649389515997,187.03511937860313 Z" fill="#454CD0" stroke="none" />
<path d="M275.56444338238714,84.6849381385666 L271.32291197577064,182.4489059841943 L291.4510469392435,96.83984332604511 Z" fill="#062468" stroke="none" />
<path d="M270.0000000000002,-130.00000000000009 L270.0000000000002,-159.84025080522557" stroke="#0000FF" stroke-width="3" stroke-linecap="round" fill="none" />
<path d="M270.0000000000002,-159.84025080522557 L271.5000000000002,-156.84025080522557 L268.5000000000002,-156.84025080522557 Z" stroke="#0000FF" stroke-width="3" stroke-linecap="round" fill="none" />
<path d="M270.0000000000002,-130.00000000000009 L297.61241519477295,-124.54750278616852" stroke="#FF0000" stroke-width="3" stroke-linecap="round" fill="none" />
<path d="M297.61241519477295,-124.54750278616852 L294.37866041743496,-123.65709274576935 L294.9598342960508,-126.60026058379943 Z" stroke="#FF0000" stroke-width="3" stroke-linecap="round" fill="none" />
<path d="M270.0000000000002,-130.00000000000009 L253.88214058773838,-120.451840277095" stroke="#00FF00" stroke-width="3" stroke-linecap="round" fill="none" />
<path d="M253.88214058773838,-120.451840277095 L255.6987213483769,-123.27142080264804 L257.22775346456393,-120.690323983916 Z" stroke="#00FF00" stroke-width="3" stroke-linecap="round" fill="none" />
<text x="2.899315254635567e-14" y="-2.8918522611425236e-14" font-size="24" stroke="none" fill="#BFA9DA" text-anchor="middle" dominant-baseline="middle" font-weight="bold">Hello world!</text>
</svg>