<?xml version="1.0" encoding="UTF-8"?>
<svg xmlns="http://www.w3.org/2000/svg" xmlns:xlink="http://www.w3.org/1999/xlink"
     width="640.0" height="360.0" viewBox="-320.0 -180.0 640.0 360.0">
<defs>
</defs>
<path d="M-115.75509844957615,120.79019304443206 L-100.40293419123253,132.70558089701893 L-48.78027816154489,161.3433069317027 Z" fill="#B4BEFA" stroke="none" />
<path d="M-56.73879314401513,-156.36785225023263 L-69.49538622392802,-151.89005028319554 L-118.86591775006966,-120.50696998226763 Z" fill="#903EC6" stroke="none" />
<path d="M-164.63299803310872,-18.952706198700728 L-168.00047547250384,11.249573751876863 L-154.6949429644956,70.11410008376562 Z" fill="#FBF13B" stroke="none" />
<path d="M80.70790088847409,143.84910970583024 L69.90593622424232,152.7873538824671 L115.75167848005682,117.34973580334912 Z" fill="#71DA4F" stroke="none" />
<path d="M80.70790088847409,143.84910970583024 L115.75167848005682,117.34973580334912 L133.30807912308967,103.20133084052479 Z" fill="#BFA966" stroke="none" />
<path d="M82.85300096445381,-142.1102939213303 L101.65192097618123,-134.3564043332507 L48.122945221341524,-159.16914404611381 Z" fill="#AAC89E" stroke="none" />
<path d="M82.85300096445381,-142.1102939213303 L48.122945221341524,-159.16914404611381 L39.31699809303126,-162.30100783472284 Z" fill="#BDD6C2" stroke="none" />
<path d="M-115.75509844957615,120.79019304443206 L-48.78027816154489,161.3433069317027 L-56.3515264509189,153.6931396838223 Z" fill="#52E41E" stroke="none" />
<path d="M-56.3515264509189,153.6931396838223 L-48.78027816154489,161.3433069317027 L11.616813229009733,168.53795971373705 Z" fill="#81AC37" stroke="none" />
<path d="M-56.73879314401513,-156.36785225023263 L-118.86591775006966,-120.50696998226763 L-96.75492943246256,-130.88244418432436 Z" fill="#65DDE0" stroke="none" />
<path d="M-96.75492943246256,-130.88244418432436 L-118.86591775006966,-120.50696998226763 L-152.54201011867764,-74.34525535761495 Z" fill="#B936DB" stroke="none" />
<path d="M13.42661949125185,161.98003882336343 L11.616813229009733,168.53795971373705 L69.90593622424232,152.7873538824671 Z" fill="#0F111D" stroke="none" />
<path d="M13.42661949125185,161.98003882336343 L69.90593622424232,152.7873538824671 L80.70790088847409,143.84910970583024 Z" fill="#82F42E" stroke="none" />
<path d="M-56.3515264509189,153.6931396838223 L11.616813229009733,168.53795971373705 L13.42661949125185,161.98003882336343 Z" fill="#93EF26" stroke="none" />
<path d="M159.53611216494588,16.752249725111636 L162.85757515812466,48.23691672654243 L166.18644910707764,-11.128103718364722 Z" fill="#1FB733" stroke="none" />
<path d="M159.53611216494588,16.752249725111636 L166.18644910707764,-11.128103718364722 L162.89058803799716,-40.56693376048714 Z" fill="#5DE8D7" stroke="none" />
<path d="M115.31992391291507,-108.88463748771227 L142.04341163857202,-93.26589595914301 L101.65192097618123,-134.3564043332507 Z" fill="#3444C7" stroke="none" />
<path d="M115.31992391291507,-108.88463748771227 L101.65192097618123,-134.3564043332507 L82.85300096445381,-142.1102939213303 Z" fill="#6A05B5" stroke="none" />
<path d="M-164.63299803310872,-18.952706198700728 L-154.6949429644956,70.11410008376562 L-151.50790926666002,37.85891321137656 Z" fill="#CDF362" stroke="none" />
<path d="M-151.50790926666002,37.85891321137656 L-154.6949429644956,70.11410008376562 L-115.75509844957615,120.79019304443206 Z" fill="#509518" stroke="none" />
<path d="M-96.75492943246256,-130.88244418432436 L-152.54201011867764,-74.34525535761495 L-123.61974944387491,-93.67308176164927 Z" fill="#B24F4E" stroke="none" />
<path d="M-123.61974944387491,-93.67308176164927 L-152.54201011867764,-74.34525535761495 L-164.63299803310872,-18.952706198700728 Z" fill="#D56B52" stroke="none" />
<path d="M130.51991397795516,69.76384847800429 L133.30807912308967,103.20133084052479 L162.85757515812466,48.23691672654243 Z" fill="#AC439F" stroke="none" />
<path d="M130.51991397795516,69.76384847800429 L162.85757515812466,48.23691672654243 L159.53611216494588,16.752249725111636 Z" fill="#B8E9B5" stroke="none" />
<path d="M131.58207269550246,-66.65258417961849 L162.89058803799716,-40.56693376048714 L142.04341163857202,-93.26589595914301 Z" fill="#2F5918" stroke="none" />
<path d="M131.58207269550246,-66.65258417961849 L142.04341163857202,-93.26589595914301 L115.31992391291507,-108.88463748771227 Z" fill="#915F60" stroke="none" />
<path d="M-151.50790926666002,37.85891321137656 L-115.75509844957615,120.79019304443206 L-113.31479766056455,86.71590940035153 Z" fill="#4A0F39" stroke="none" />
<path d="M-113.31479766056455,86.71590940035153 L-115.75509844957615,120.79019304443206 L-56.3515264509189,153.6931396838223 Z" fill="#B700D3" stroke="none" />
<path d="M-123.61974944387491,-93.67308176164927 L-164.63299803310872,-18.952706198700728 L-132.71671724082933,-49.45349907400327 Z" fill="#E4F9D6" stroke="none" />
<path d="M-132.71671724082933,-49.45349907400327 L-164.63299803310872,-18.952706198700728 L-151.50790926666002,37.85891321137656 Z" fill="#94A8CA" stroke="none" />
<path d="M-5.355654456674515,-140.90098523734738 L-9.308752237071182,-167.2266812138255 L-56.73879314401513,-156.36785225023263 Z" fill="#B98D6B" stroke="none" />
<path d="M22.595504570159402,-138.03085016309427 L39.31699809303126,-162.30100783472284 L-9.308752237071182,-167.2266812138255 Z" fill="#8C63E3" stroke="none" />
<path d="M22.595504570159402,-138.03085016309427 L-9.308752237071182,-167.2266812138255 L-5.355654456674515,-140.90098523734738 Z" fill="#50B921" stroke="none" />
<path d="M-5.355654456674515,-140.90098523734738 L-56.73879314401513,-156.36785225023263 L-32.56454771981355,-134.58206341036916 Z" fill="#9C0DBE" stroke="none" />
<path d="M-32.56454771981355,-134.58206341036916 L-56.73879314401513,-156.36785225023263 L-96.75492943246256,-130.88244418432436 Z" fill="#0B3A24" stroke="none" />
<path d="M47.40131719925305,-126.33182998812923 L82.85300096445381,-142.1102939213303 L39.31699809303126,-162.30100783472284 Z" fill="#A4600D" stroke="none" />
<path d="M47.40131719925305,-126.33182998812923 L39.31699809303126,-162.30100783472284 L22.595504570159402,-138.03085016309427 Z" fill="#06F5F3" stroke="none" />
<path d="M78.98885277828532,108.93125652094965 L80.70790088847409,143.84910970583024 L133.30807912308967,103.20133084052479 Z" fill="#385C0F" stroke="none" />
<path d="M78.98885277828532,108.93125652094965 L133.30807912308967,103.20133084052479 L130.51991397795516,69.76384847800429 Z" fill="#F30A09" stroke="none" />
<path d="M-32.56454771981355,-134.58206341036916 L-96.75492943246256,-130.88244418432436 L-55.21656785921621,-119.87158449179641 Z" fill="#FD6F7E" stroke="none" />
<path d="M-55.21656785921621,-119.87158449179641 L-96.75492943246256,-130.88244418432436 L-123.61974944387491,-93.67308176164927 Z" fill="#1579A0" stroke="none" />
<path d="M-113.31479766056455,86.71590940035153 L-56.3515264509189,153.6931396838223 L-55.1460162499686,118.41214618195872 Z" fill="#CE0951" stroke="none" />
<path d="M-55.1460162499686,118.41214618195872 L-56.3515264509189,153.6931396838223 L13.42661949125185,161.98003882336343 Z" fill="#703853" stroke="none" />
<path d="M128.17350392079862,-21.196069891442296 L159.53611216494588,16.752249725111636 L162.89058803799716,-40.56693376048714 Z" fill="#1430D8" stroke="none" />
<path d="M128.17350392079862,-21.196069891442296 L162.89058803799716,-40.56693376048714 L131.58207269550246,-66.65258417961849 Z" fill="#5502E0" stroke="none" />
<path d="M13.138336519509004,126.39194906852211 L13.42661949125185,161.98003882336343 L80.70790088847409,143.84910970583024 Z" fill="#3F6C0F" stroke="none" />
<path d="M13.138336519509004,126.39194906852211 L80.70790088847409,143.84910970583024 L78.98885277828532,108.93125652094965 Z" fill="#9E6452" stroke="none" />
<path d="M-55.1460162499686,118.41214618195872 L13.42661949125185,161.98003882336343 L13.138336519509004,126.39194906852211 Z" fill="#A418CD" stroke="none" />
<path d="M65.49091507282444,-107.30762995346076 L115.31992391291507,-108.88463748771227 L82.85300096445381,-142.1102939213303 Z" fill="#667768" stroke="none" />
<path d="M65.49091507282444,-107.30762995346076 L82.85300096445381,-142.1102939213303 L47.40131719925305,-126.33182998812923 Z" fill="#196B00" stroke="none" />
<path d="M-132.71671724082933,-49.45349907400327 L-151.50790926666002,37.85891321137656 L-121.48095965046701,-4.581546116976098 Z" fill="#AB4E2E" stroke="none" />
<path d="M-121.48095965046701,-4.581546116976098 L-151.50790926666002,37.85891321137656 L-113.31479766056455,86.71590940035153 Z" fill="#5F74B4" stroke="none" />
<path d="M-55.21656785921621,-119.87158449179641 L-123.61974944387491,-93.67308176164927 L-69.96887471260514,-98.69092286303342 Z" fill="#AF5A11" stroke="none" />
<path d="M-69.96887471260514,-98.69092286303342 L-123.61974944387491,-93.67308176164927 L-132.71671724082933,-49.45349907400327 Z" fill="#6A02A6" stroke="none" />
<path d="M74.03429371610119,-83.52668658791985 L131.58207269550246,-66.65258417961849 L115.31992391291507,-108.88463748771227 Z" fill="#735BDF" stroke="none" />
<path d="M74.03429371610119,-83.52668658791985 L115.31992391291507,-108.88463748771227 L65.49091507282444,-107.30762995346076 Z" fill="#095528" stroke="none" />
<path d="M104.33821196558809,20.407722055902386 L130.51991397795516,69.76384847800429 L159.53611216494588,16.752249725111636 Z" fill="#4C331C" stroke="none" />
<path d="M104.33821196558809,20.407722055902386 L159.53611216494588,16.752249725111636 L128.17350392079862,-21.196069891442296 Z" fill="#B29846" stroke="none" />
<path d="M-69.96887471260514,-98.69092286303342 L-132.71671724082933,-49.45349907400327 L-74.39214078958764,-73.96758798858612 Z" fill="#AF686A" stroke="none" />
<path d="M-74.39214078958764,-73.96758798858612 L-132.71671724082933,-49.45349907400327 L-121.48095965046701,-4.581546116976098 Z" fill="#CDFBE5" stroke="none" />
<path d="M-121.48095965046701,-4.581546116976098 L-113.31479766056455,86.71590940035153 L-90.44004260242392,33.62431140161031 Z" fill="#2F5FF2" stroke="none" />
<path d="M-90.44004260242392,33.62431140161031 L-113.31479766056455,86.71590940035153 L-55.1460162499686,118.41214618195872 Z" fill="#4179DC" stroke="none" />
<path d="M71.40474583833728,-58.41735680897795 L128.17350392079862,-21.196069891442296 L131.58207269550246,-66.65258417961849 Z" fill="#634816" stroke="none" />
<path d="M71.40474583833728,-58.41735680897795 L131.58207269550246,-66.65258417961849 L74.03429371610119,-83.52668658791985 Z" fill="#2D6E21" stroke="none" />
<path d="M-4.340608390304173e-15,-86.39109021970316 L71.40474583833728,-58.41735680897795 L74.03429371610119,-83.52668658791985 Z" fill="#FE2B60" stroke="none" />
<path d="M-4.340608390304173e-15,-86.39109021970316 L74.03429371610119,-83.52668658791985 L65.49091507282444,-107.30762995346076 Z" fill="#023F02" stroke="none" />
<path d="M-4.340608390304173e-15,-86.39109021970316 L65.49091507282444,-107.30762995346076 L47.40131719925305,-126.33182998812923 Z" fill="#F4444F" stroke="none" />
<path d="M-4.340608390304173e-15,-86.39109021970316 L47.40131719925305,-126.33182998812923 L22.595504570159402,-138.03085016309427 Z" fill="#570EDD" stroke="none" />
<path d="M-4.340608390304173e-15,-86.39109021970316 L22.595504570159402,-138.03085016309427 L-5.355654456674515,-140.90098523734738 Z" fill="#6F3DF7" stroke="none" />
<path d="M-4.340608390304173e-15,-86.39109021970316 L-5.355654456674515,-140.90098523734738 L-32.56454771981355,-134.58206341036916 Z" fill="#018D64" stroke="none" />
<path d="M-4.340608390304173e-15,-86.39109021970316 L-32.56454771981355,-134.58206341036916 L-55.21656785921621,-119.87158449179641 Z" fill="#8AA4BB" stroke="none" />
<path d="M-4.340608390304173e-15,-86.39109021970316 L-55.21656785921621,-119.87158449179641 L-69.96887471260514,-98.69092286303342 Z" fill="#4830E0" stroke="none" />
<path d="M-4.340608390304173e-15,-86.39109021970316 L-69.96887471260514,-98.69092286303342 L-74.39214078958764,-73.96758798858612 Z" fill="#01EB64" stroke="none" />
<path d="M-4.340608390304173e-15,-86.39109021970316 L-74.39214078958764,-73.96758798858612 L-67.4331219707812,-49.36303916073949 Z" fill="#B61493" stroke="none" />
<path d="M-74.39214078958764,-73.96758798858612 L-121.48095965046701,-4.581546116976098 L-67.4331219707812,-49.36303916073949 Z" fill="#DDAE65" stroke="none" />
<path d="M-67.4331219707812,-49.36303916073949 L-121.48095965046701,-4.581546116976098 L-90.44004260242392,33.62431140161031 Z" fill="#DBA23F" stroke="none" />
<path d="M62.91209143739175,50.88077107939376 L78.98885277828532,108.93125652094965 L130.51991397795516,69.76384847800429 Z" fill="#3E786E" stroke="none" />
<path d="M62.91209143739175,50.88077107939376 L130.51991397795516,69.76384847800429 L104.33821196558809,20.407722055902386 Z" fill="#765F49" stroke="none" />
<path d="M-90.44004260242392,33.62431140161031 L-55.1460162499686,118.41214618195872 L-43.883015135829986,58.22347259401727 Z" fill="#3F45C9" stroke="none" />
<path d="M-43.883015135829986,58.22347259401727 L-55.1460162499686,118.41214618195872 L13.138336519509004,126.39194906852211 Z" fill="#C0C2BC" stroke="none" />
<path d="M-4.340608390304173e-15,-86.39109021970316 L57.605903419707246,-35.866694886435305 L71.40474583833728,-58.41735680897795 Z" fill="#CE27A7" stroke="none" />
<path d="M57.605903419707246,-35.866694886435305 L104.33821196558809,20.407722055902386 L128.17350392079862,-21.196069891442296 Z" fill="#B9CE4D" stroke="none" />
<path d="M57.605903419707246,-35.866694886435305 L128.17350392079862,-21.196069891442296 L71.40474583833728,-58.41735680897795 Z" fill="#31F140" stroke="none" />
<path d="M10.447155897292973,64.39351747225365 L13.138336519509004,126.39194906852211 L78.98885277828532,108.93125652094965 Z" fill="#AB2275" stroke="none" />
<path d="M10.447155897292973,64.39351747225365 L78.98885277828532,108.93125652094965 L62.91209143739175,50.88077107939376 Z" fill="#C21DA6" stroke="none" />
<path d="M-43.883015135829986,58.22347259401727 L13.138336519509004,126.39194906852211 L10.447155897292973,64.39351747225365 Z" fill="#7811E9" stroke="none" />
<path d="M-4.340608390304173e-15,-86.39109021970316 L-67.4331219707812,-49.36303916073949 L-49.79102581815073,-28.78711854341904 Z" fill="#38B0B0" stroke="none" />
<path d="M-67.4331219707812,-49.36303916073949 L-90.44004260242392,33.62431140161031 L-49.79102581815073,-28.78711854341904 Z" fill="#A51D18" stroke="none" />
<path d="M-49.79102581815073,-28.78711854341904 L-90.44004260242392,33.62431140161031 L-43.883015135829986,58.22347259401727 Z" fill="#03A712" stroke="none" />
<path d="M-4.340608390304173e-15,-86.39109021970316 L34.5079715685887,-19.603765497403245 L57.605903419707246,-35.866694886435305 Z" fill="#C6AEC4" stroke="none" />
<path d="M34.5079715685887,-19.603765497403245 L62.91209143739175,50.88077107939376 L104.33821196558809,20.407722055902386 Z" fill="#244383" stroke="none" />
<path d="M34.5079715685887,-19.603765497403245 L104.33821196558809,20.407722055902386 L57.605903419707246,-35.866694886435305 Z" fill="#001888" stroke="none" />
<path d="M-4.340608390304173e-15,-86.39109021970316 L-49.79102581815073,-28.78711854341904 L-24.03259264680896,-15.716722865586947 Z" fill="#6DE970" stroke="none" />
<path d="M-49.79102581815073,-28.78711854341904 L-43.883015135829986,58.22347259401727 L-24.03259264680896,-15.716722865586947 Z" fill="#0FF4ED" stroke="none" />
<path d="M-24.03259264680896,-15.716722865586947 L-43.883015135829986,58.22347259401727 L10.447155897292973,64.39351747225365 Z" fill="#1AA0DF" stroke="none" />
<path d="M-4.340608390304173e-15,-86.39109021970316 L5.713874588666561,-12.459862998778847 L34.5079715685887,-19.603765497403245 Z" fill="#5E01D7" stroke="none" />
<path d="M-4.340608390304173e-15,-86.39109021970316 L-24.03259264680896,-15.716722865586947 L5.713874588666561,-12.459862998778847 Z" fill="#E67AC7" stroke="none" />
<path d="M5.713874588666561,-12.459862998778847 L10.447155897292973,64.39351747225365 L62.91209143739175,50.88077107939376 Z" fill="#6083CE" stroke="none" />
<path d="M5.713874588666561,-12.459862998778847 L62.91209143739175,50.88077107939376 L34.5079715685887,-19.603765497403245 Z" fill="#F252FC" stroke="none" />
<path d="M-24.03259264680896,-15.716722865586947 L10.447155897292973,64.39351747225365 L5.713874588666561,-12.459862998778847 Z" fill="#3F2275" stroke="none" />
<path d="M17.989141963153276,331.2985398152094 L-46.424395793779134,423.23825474022107 L26.064182805746295,391.3640305299917 Z" fill="#E7BDAA" stroke="none" />
<path d="M-57.25280692556872,362.626303394527 L17.989141963153276,331.2985398152094 L-14.424522786266632,283.9299858286429 Z" fill="#A1A61F" stroke="none" />
<path d="M-14.424522786266632,283.9299858286429 L-85.55993895941066,311.97724966660695 L-57.25280692556872,362.626303394527 Z" fill="#E43A69" stroke="none" />
<path d="M-85.55993895941066,311.97724966660695 L-74.52639878500557,370.3327273166065 L-57.25280692556872,362.626303394527 Z" fill="#F9832A" stroke="none" />
<path d="M-57.25280692556872,362.626303394527 L-74.52639878500557,370.3327273166065 L-46.424395793779134,423.23825474022107 Z" fill="#BFE7BE" stroke="none" />
<path d="M-57.25280692556872,362.626303394527 L-46.424395793779134,423.23825474022107 L17.989141963153276,331.2985398152094 Z" fill="#1277F6" stroke="none" />
<text x="-4.759941281741236e-15" y="-142.10560354740272" font-size="24" stroke="none" fill="#5FC0FC" text-anchor="middle" dominant-baseline="middle">Hello world!</text>
<path d="M270.0,-130.00000000000009 L301.29724721391887,-132.09571246613137" stroke="#FF0000" stroke-width="3" stroke-linecap="round" fill="none" />
<path d="M301.29724721391887,-132.09571246613137 L298.4041683644056,-130.3986282694873 L298.20373254689565,-133.39192502775552 Z" stroke="#FF0000" stroke-width="3" stroke-linecap="round" fill="none" />
<path d="M270.0,-130.00000000000009 L272.36639479748277,-101.45158381695296" stroke="#00FF00" stroke-width="3" stroke-linecap="round" fill="none" />
<path d="M272.36639479748277,-101.45158381695296 L270.6236997034672,-104.3174194384243 L273.6134462382505,-104.56524126504824 Z" stroke="#00FF00" stroke-width="3" stroke-linecap="round" fill="none" />
<path d="M270.0,-130.00000000000009 L270.0,-144.16982815494381" stroke="#0000FF" stroke-width="3" stroke-linecap="round" fill="none" />
<path d="M270.0,-144.16982815494381 L271.5,-141.16982815494381 L268.5,-141.16982815494381 Z" stroke="#0000FF" stroke-width="3" stroke-linecap="round" fill="none" />
</svg>