<?xml version="1.0" encoding="UTF-8"?>
<svg xmlns="http://www.w3.org/2000/svg" xmlns:xlink="http://www.w3.org/1999/xlink"
     width="640.0" height="360.0" viewBox="-320.0 -180.0 640.0 360.0">
<defs>
</defs>
<path d="M-62.72597291371524,155.04489985820118 L-32.035273353845874,164.3292147277481 L-8.426175180390041,168.34203432456727 Z" fill="#B4623C" stroke="none" />
<path d="M3.0745764333700583e-14,-166.96454968738695 L64.32419647749502,-156.96975081415616 L51.70572967938428,-161.4238680800626 Z" fill="#EA2BF5" stroke="none" />
<path d="M3.0745764333700583e-14,-166.96454968738695 L51.70572967938428,-161.4238680800626 L32.08398817840285,-164.57910392883642 Z" fill="#10BD23" stroke="none" />
<path d="M3.0745764333700583e-14,-166.96454968738695 L-16.50897264170474,-165.77824969334083 L-39.2340040736759,-163.69772262761634 Z" fill="#5F9586" stroke="none" />
<path d="M3.0745764333700583e-14,-166.96454968738695 L-39.2340040736759,-163.69772262761634 L-56.81849629404163,-160.06001208100233 Z" fill="#41D6EE" stroke="none" />
<path d="M3.0745764333700583e-14,-166.96454968738695 L-56.81849629404163,-160.06001208100233 L-66.55508981088198,-155.28781950750704 Z" fill="#DF8B2B" stroke="none" />
<path d="M-120.58060089493927,-119.71591709990665 L-153.9238625952389,-67.36014751025722 L-158.94242897110675,-49.48196897466137 Z" fill="#7EED33" stroke="none" />
<path d="M3.0745764333700583e-14,-166.96454968738695 L67.66344885070143,-151.7803942229896 L64.32419647749502,-156.96975081415616 Z" fill="#CE5C79" stroke="none" />
<path d="M67.66344885070143,-151.7803942229896 L124.26853966705974,-112.18633023830115 L115.78821254349108,-123.25486271796642 Z" fill="#D256C2" stroke="none" />
<path d="M67.66344885070143,-151.7803942229896 L115.78821254349108,-123.25486271796642 L64.32419647749502,-156.96975081415616 Z" fill="#0516A2" stroke="none" />
<path d="M-131.5252626907625,99.0463202813532 L-96.61312358720568,139.78932684382949 L-62.72597291371524,155.04489985820118 Z" fill="#CD1640" stroke="none" />
<path d="M-168.6798740320266,15.45850195168455 L-151.89786865971857,75.1299189183783 L-131.5252626907625,99.0463202813532 Z" fill="#CCB6D2" stroke="none" />
<path d="M32.85422984716264,161.2199781210736 L16.682487366281855,167.5206335448798 L38.834660179011024,162.031522920364 Z" fill="#343FDB" stroke="none" />
<path d="M32.85422984716264,161.2199781210736 L38.834660179011024,162.031522920364 L75.72499327664357,150.64300476375294 Z" fill="#7CA1D9" stroke="none" />
<path d="M3.0745764333700583e-14,-166.96454968738695 L-66.55508981088198,-155.28781950750704 L-66.46580992214618,-150.0135224107533 Z" fill="#A5359E" stroke="none" />
<path d="M-120.58060089493927,-119.71591709990665 L-158.94242897110675,-49.48196897466137 L-122.91750620029234,-108.31458269990647 Z" fill="#F0966B" stroke="none" />
<path d="M-66.55508981088198,-155.28781950750704 L-120.58060089493927,-119.71591709990665 L-122.91750620029234,-108.31458269990647 Z" fill="#332F83" stroke="none" />
<path d="M-66.55508981088198,-155.28781950750704 L-122.91750620029234,-108.31458269990647 L-66.46580992214618,-150.0135224107533 Z" fill="#2A0CD0" stroke="none" />
<path d="M-62.72597291371524,155.04489985820118 L-8.426175180390041,168.34203432456727 L-16.619185516692138,162.82091443372653 Z" fill="#D81432" stroke="none" />
<path d="M-16.619185516692138,162.82091443372653 L-8.426175180390041,168.34203432456727 L16.682487366281855,167.5206335448798 Z" fill="#44A344" stroke="none" />
<path d="M-16.619185516692138,162.82091443372653 L16.682487366281855,167.5206335448798 L32.85422984716264,161.2199781210736 Z" fill="#B561EE" stroke="none" />
<path d="M157.43209749642398,31.087395539721378 L141.19344894465885,91.33994409325925 L153.02514350060542,66.96685013736064 Z" fill="#5BBAD3" stroke="none" />
<path d="M157.43209749642398,31.087395539721378 L153.02514350060542,66.96685013736064 L169.5849062605569,7.636036275573465 Z" fill="#5037FD" stroke="none" />
<path d="M3.0745764333700583e-14,-166.96454968738695 L60.53059952408455,-146.61175693339214 L67.66344885070143,-151.7803942229896 Z" fill="#E20BA7" stroke="none" />
<path d="M60.53059952408455,-146.61175693339214 L124.26853966705974,-112.18633023830115 L67.66344885070143,-151.7803942229896 Z" fill="#F5098D" stroke="none" />
<path d="M3.0745764333700583e-14,-166.96454968738695 L-66.46580992214618,-150.0135224107533 L-55.84804423231595,-145.04239521197024 Z" fill="#513D9D" stroke="none" />
<path d="M103.89478863977263,112.73780946502374 L75.72499327664357,150.64300476375294 L104.17330075372328,133.60527892462744 Z" fill="#0A05A7" stroke="none" />
<path d="M103.89478863977263,112.73780946502374 L104.17330075372328,133.60527892462744 L141.19344894465885,91.33994409325925 Z" fill="#B821CB" stroke="none" />
<path d="M147.99383689292728,-37.29187580594535 L157.43209749642398,31.087395539721378 L169.5849062605569,7.636036275573465 Z" fill="#AFF53C" stroke="none" />
<path d="M147.99383689292728,-37.29187580594535 L169.5849062605569,7.636036275573465 L159.98465408768323,-55.60495459734543 Z" fill="#F72503" stroke="none" />
<path d="M-168.6798740320266,15.45850195168455 L-131.5252626907625,99.0463202813532 L-146.93679304286644,38.56228098657398 Z" fill="#610161" stroke="none" />
<path d="M-158.94242897110675,-49.48196897466137 L-168.6798740320266,15.45850195168455 L-146.93679304286644,38.56228098657398 Z" fill="#212FA4" stroke="none" />
<path d="M113.45974430552913,-100.70665952119658 L147.99383689292728,-37.29187580594535 L159.98465408768323,-55.60495459734543 Z" fill="#5F2B87" stroke="none" />
<path d="M113.45974430552913,-100.70665952119658 L159.98465408768323,-55.60495459734543 L124.26853966705974,-112.18633023830115 Z" fill="#76C036" stroke="none" />
<path d="M60.53059952408455,-146.61175693339214 L113.45974430552913,-100.70665952119658 L124.26853966705974,-112.18633023830115 Z" fill="#E6F766" stroke="none" />
<path d="M3.0745764333700583e-14,-166.96454968738695 L43.380620675825924,-142.32679954632047 L60.53059952408455,-146.61175693339214 Z" fill="#BF840F" stroke="none" />
<path d="M43.380620675825924,-142.32679954632047 L113.45974430552913,-100.70665952119658 L60.53059952408455,-146.61175693339214 Z" fill="#02713E" stroke="none" />
<path d="M-86.33380417326381,118.35182827431244 L-62.72597291371524,155.04489985820118 L-16.619185516692138,162.82091443372653 Z" fill="#46E899" stroke="none" />
<path d="M-131.5252626907625,99.0463202813532 L-62.72597291371524,155.04489985820118 L-86.33380417326381,118.35182827431244 Z" fill="#DEED4A" stroke="none" />
<path d="M-146.93679304286644,38.56228098657398 L-131.5252626907625,99.0463202813532 L-86.33380417326381,118.35182827431244 Z" fill="#3CB7B5" stroke="none" />
<path d="M3.0745764333700583e-14,-166.96454968738695 L-55.84804423231595,-145.04239521197024 L-35.80354278175207,-141.23928614851667 Z" fill="#B1C570" stroke="none" />
<path d="M-66.46580992214618,-150.0135224107533 L-122.91750620029234,-108.31458269990647 L-105.34187975511773,-97.12682905162623 Z" fill="#F7C8A5" stroke="none" />
<path d="M-66.46580992214618,-150.0135224107533 L-105.34187975511773,-97.12682905162623 L-55.84804423231595,-145.04239521197024 Z" fill="#590B92" stroke="none" />
<path d="M-158.94242897110675,-49.48196897466137 L-146.93679304286644,38.56228098657398 L-137.97199459598457,-31.48199610088323 Z" fill="#731C08" stroke="none" />
<path d="M-122.91750620029234,-108.31458269990647 L-158.94242897110675,-49.48196897466137 L-137.97199459598457,-31.48199610088323 Z" fill="#33BE4C" stroke="none" />
<path d="M-122.91750620029234,-108.31458269990647 L-137.97199459598457,-31.48199610088323 L-105.34187975511773,-97.12682905162623 Z" fill="#243E6F" stroke="none" />
<path d="M3.0745764333700583e-14,-166.96454968738695 L18.6580374746444,-139.72692488259764 L43.380620675825924,-142.32679954632047 Z" fill="#ED3F19" stroke="none" />
<path d="M3.0745764333700583e-14,-166.96454968738695 L-35.80354278175207,-141.23928614851667 L-9.425726672250118,-139.3373296400904 Z" fill="#82E3AE" stroke="none" />
<path d="M3.0745764333700583e-14,-166.96454968738695 L-9.425726672250118,-139.3373296400904 L18.6580374746444,-139.72692488259764 Z" fill="#54F2B7" stroke="none" />
<path d="M45.42203587303885,126.28775091497694 L32.85422984716264,161.2199781210736 L75.72499327664357,150.64300476375294 Z" fill="#A0D4D7" stroke="none" />
<path d="M45.42203587303885,126.28775091497694 L75.72499327664357,150.64300476375294 L103.89478863977263,112.73780946502374 Z" fill="#9FC774" stroke="none" />
<path d="M-86.33380417326381,118.35182827431244 L-16.619185516692138,162.82091443372653 L-23.003286909154063,128.3568233915282 Z" fill="#3198FE" stroke="none" />
<path d="M-23.003286909154063,128.3568233915282 L-16.619185516692138,162.82091443372653 L32.85422984716264,161.2199781210736 Z" fill="#EC5921" stroke="none" />
<path d="M-23.003286909154063,128.3568233915282 L32.85422984716264,161.2199781210736 L45.42203587303885,126.28775091497694 Z" fill="#28CF23" stroke="none" />
<path d="M116.4705876745276,51.91435686966744 L103.89478863977263,112.73780946502374 L141.19344894465885,91.33994409325925 Z" fill="#84D1DD" stroke="none" />
<path d="M116.4705876745276,51.91435686966744 L141.19344894465885,91.33994409325925 L157.43209749642398,31.087395539721378 Z" fill="#730F9A" stroke="none" />
<path d="M82.72697704768389,-90.82467405749789 L147.99383689292728,-37.29187580594535 L113.45974430552913,-100.70665952119658 Z" fill="#925872" stroke="none" />
<path d="M18.6580374746444,-139.72692488259764 L82.72697704768389,-90.82467405749789 L43.380620675825924,-142.32679954632047 Z" fill="#731F8E" stroke="none" />
<path d="M43.380620675825924,-142.32679954632047 L82.72697704768389,-90.82467405749789 L113.45974430552913,-100.70665952119658 Z" fill="#2B35A0" stroke="none" />
<path d="M-96.9215610364291,57.41597079976331 L-86.33380417326381,118.35182827431244 L-23.003286909154063,128.3568233915282 Z" fill="#1F4CC9" stroke="none" />
<path d="M-146.93679304286644,38.56228098657398 L-86.33380417326381,118.35182827431244 L-96.9215610364291,57.41597079976331 Z" fill="#83CBCD" stroke="none" />
<path d="M-137.97199459598457,-31.48199610088323 L-146.93679304286644,38.56228098657398 L-96.9215610364291,57.41597079976331 Z" fill="#058BB4" stroke="none" />
<path d="M-55.84804423231595,-145.04239521197024 L-105.34187975511773,-97.12682905162623 L-68.58002924433673,-88.26174161943277 Z" fill="#F6F2EC" stroke="none" />
<path d="M-55.84804423231595,-145.04239521197024 L-68.58002924433673,-88.26174161943277 L-35.80354278175207,-141.23928614851667 Z" fill="#62B9D4" stroke="none" />
<path d="M109.14474394825532,-21.13658859728726 L116.4705876745276,51.91435686966744 L157.43209749642398,31.087395539721378 Z" fill="#892D6E" stroke="none" />
<path d="M109.14474394825532,-21.13658859728726 L157.43209749642398,31.087395539721378 L147.99383689292728,-37.29187580594535 Z" fill="#CA9E95" stroke="none" />
<path d="M82.72697704768389,-90.82467405749789 L109.14474394825532,-21.13658859728726 L147.99383689292728,-37.29187580594535 Z" fill="#468935" stroke="none" />
<path d="M-137.97199459598457,-31.48199610088323 L-96.9215610364291,57.41597079976331 L-90.75016384366718,-16.885936577161132 Z" fill="#B137E9" stroke="none" />
<path d="M-105.34187975511773,-97.12682905162623 L-137.97199459598457,-31.48199610088323 L-90.75016384366718,-16.885936577161132 Z" fill="#AB2E3D" stroke="none" />
<path d="M-105.34187975511773,-97.12682905162623 L-90.75016384366718,-16.885936577161132 L-68.58002924433673,-88.26174161943277 Z" fill="#BE5FA9" stroke="none" />
<path d="M35.96021338824619,-84.65958166914272 L109.14474394825532,-21.13658859728726 L82.72697704768389,-90.82467405749789 Z" fill="#16CD38" stroke="none" />
<path d="M-9.425726672250118,-139.3373296400904 L35.96021338824619,-84.65958166914272 L18.6580374746444,-139.72692488259764 Z" fill="#CA8DE8" stroke="none" />
<path d="M18.6580374746444,-139.72692488259764 L35.96021338824619,-84.65958166914272 L82.72697704768389,-90.82467405749789 Z" fill="#44A3BD" stroke="none" />
<path d="M-35.80354278175207,-141.23928614851667 L-68.58002924433673,-88.26174161943277 L-18.19555970717184,-83.7243913417792 Z" fill="#426D8F" stroke="none" />
<path d="M-35.80354278175207,-141.23928614851667 L-18.19555970717184,-83.7243913417792 L-9.425726672250118,-139.3373296400904 Z" fill="#A61AA9" stroke="none" />
<path d="M-9.425726672250118,-139.3373296400904 L-18.19555970717184,-83.7243913417792 L35.96021338824619,-84.65958166914272 Z" fill="#922C69" stroke="none" />
<path d="M51.09516776732129,65.21973977406353 L45.42203587303885,126.28775091497694 L103.89478863977263,112.73780946502374 Z" fill="#95F2D1" stroke="none" />
<path d="M51.09516776732129,65.21973977406353 L103.89478863977263,112.73780946502374 L116.4705876745276,51.91435686966744 Z" fill="#0EABAD" stroke="none" />
<path d="M-96.9215610364291,57.41597079976331 L-23.003286909154063,128.3568233915282 L-25.889950191472415,67.25952517006856 Z" fill="#31E75A" stroke="none" />
<path d="M-25.889950191472415,67.25952517006856 L-23.003286909154063,128.3568233915282 L45.42203587303885,126.28775091497694 Z" fill="#A6B3ED" stroke="none" />
<path d="M-25.889950191472415,67.25952517006856 L45.42203587303885,126.28775091497694 L51.09516776732129,65.21973977406353 Z" fill="#252540" stroke="none" />
<path d="M-90.75016384366718,-16.885936577161132 L-96.9215610364291,57.41597079976331 L-25.889950191472415,67.25952517006856 Z" fill="#6C39A4" stroke="none" />
<path d="M405.9136275580084,95.51741103194229 L295.4728982148468,88.04784012337146 L364.76674047163965,93.90727598868578 Z" fill="#587B6F" stroke="none" />
<path d="M47.785635286012365,-10.868648263259189 L51.09516776732129,65.21973977406353 L116.4705876745276,51.91435686966744 Z" fill="#5F62E6" stroke="none" />
<path d="M47.785635286012365,-10.868648263259189 L116.4705876745276,51.91435686966744 L109.14474394825532,-21.13658859728726 Z" fill="#8BEEF0" stroke="none" />
<path d="M-18.19555970717184,-83.7243913417792 L47.785635286012365,-10.868648263259189 L35.96021338824619,-84.65958166914272 Z" fill="#1549B4" stroke="none" />
<path d="M35.96021338824619,-84.65958166914272 L47.785635286012365,-10.868648263259189 L109.14474394825532,-21.13658859728726 Z" fill="#713806" stroke="none" />
<path d="M299.5729720754982,13.82869748420788 L295.4728982148468,88.04784012337146 L335.8347195707254,9.17480278949711 Z" fill="#DCAFA8" stroke="none" />
<path d="M-90.75016384366718,-16.885936577161132 L-25.889950191472415,67.25952517006856 L-24.205590235076876,-9.298146820263975 Z" fill="#060F94" stroke="none" />
<path d="M-24.205590235076876,-9.298146820263975 L-25.889950191472415,67.25952517006856 L51.09516776732129,65.21973977406353 Z" fill="#6FA1CC" stroke="none" />
<path d="M-24.205590235076876,-9.298146820263975 L51.09516776732129,65.21973977406353 L47.785635286012365,-10.868648263259189 Z" fill="#7755CD" stroke="none" />
<path d="M-68.58002924433673,-88.26174161943277 L-90.75016384366718,-16.885936577161132 L-24.205590235076876,-9.298146820263975 Z" fill="#05CE18" stroke="none" />
<path d="M-68.58002924433673,-88.26174161943277 L-24.205590235076876,-9.298146820263975 L-18.19555970717184,-83.7243913417792 Z" fill="#06AA14" stroke="none" />
<path d="M-18.19555970717184,-83.7243913417792 L-24.205590235076876,-9.298146820263975 L47.785635286012365,-10.868648263259189 Z" fill="#D563C3" stroke="none" />
<path d="M405.9136275580084,95.51741103194229 L331.65939371746776,89.2156024667124 L295.4728982148468,88.04784012337146 Z" fill="#833B26" stroke="none" />
<path d="M335.8347195707254,9.17480278949711 L295.4728982148468,88.04784012337146 L331.65939371746776,89.2156024667124 Z" fill="#DF265E" stroke="none" />
<path d="M335.8347195707254,9.17480278949711 L331.65939371746776,89.2156024667124 L409.5401636688868,16.397585187782845 Z" fill="#E06602" stroke="none" />
<path d="M409.5401636688868,16.397585187782845 L331.65939371746776,89.2156024667124 L405.9136275580084,95.51741103194229 Z" fill="#04A718" stroke="none" />
<path d="M270.0000000000002,-130.00000000000009 L270.0000000000002,-159.84025080522557" stroke="#0000FF" stroke-width="3" stroke-linecap="round" fill="none" />
<path d="M270.0000000000002,-159.84025080522557 L271.5000000000002,-156.84025080522557 L268.5000000000002,-156.84025080522557 Z" stroke="#0000FF" stroke-width="3" stroke-linecap="round" fill="none" />
<path d="M270.0000000000002,-130.00000000000009 L297.61241519477295,-124.54750278616852" stroke="#FF0000" stroke-width="3" stroke-linecap="round" fill="none" />
<path d="M297.61241519477295,-124.54750278616852 L294.37866041743496,-123.65709274576935 L294.9598342960508,-126.60026058379943 Z" stroke="#FF0000" stroke-width="3" stroke-linecap="round" fill="none" />
<path d="M270.0000000000002,-130.00000000000009 L253.88214058773838,-120.451840277095" stroke="#00FF00" stroke-width="3" stroke-linecap="round" fill="none" />
<path d="M253.88214058773838,-120.451840277095 L255.6987213483769,-123.27142080264804 L257.22775346456393,-120.690323983916 Z" stroke="#00FF00" stroke-width="3" stroke-linecap="round" fill="none" />
<text x="2.899315254635567e-14" y="-2.8918522611425236e-14" font-size="24" stroke="none" fill="#BAB43B" text-anchor="middle" dominant-baseline="middle" font-weight="bold">Hello world!</text>
</svg>